<svg xmlns="http://www.w3.org/2000/svg" viewBox="0 0 512 512"><defs><linearGradient id="bg" x1="0" y1="0" x2="1" y2="1"><stop stop-color="#071a11"/><stop offset="1" stop-color="#0d3a26"/></linearGradient><linearGradient id="gold" x1="0" y1="0" x2="1" y2="1"><stop stop-color="#fff0ad"/><stop offset=".45" stop-color="#d7a943"/><stop offset="1" stop-color="#8c5d13"/></linearGradient></defs><rect x="8" y="8" width="496" height="496" rx="92" fill="url(#bg)" stroke="#2e8157" stroke-width="10"/><circle cx="256" cy="190" r="142" fill="#0b2518" stroke="url(#gold)" stroke-width="7"/><path d="M105 250c32-66 91-90 157-73 40 10 66 31 104 26l38-25-12 43 24 37-47-11c-31 39-72 56-122 51-55-5-101-24-142-48z" fill="url(#gold)" stroke="#161b14" stroke-width="9"/><path d="M376 179l47-30-17 53zM121 220l-34-30 17 52z" fill="#c8962f" stroke="#161b14" stroke-width="7"/><circle cx="337" cy="190" r="9" fill="#07110b"/><path d="M145 278c35 24 76 35 119 35 45 0 82-13 112-40" fill="none" stroke="#54d99a" stroke-width="8" stroke-linecap="round"/><text x="256" y="382" text-anchor="middle" font-family="Arial,Helvetica,sans-serif" font-size="58" font-weight="900" letter-spacing="3" fill="#fff5d2" stroke="#161b14" stroke-width="6" paint-order="stroke">FISHING</text><text x="256" y="438" text-anchor="middle" font-family="Arial,Helvetica,sans-serif" font-size="39" font-weight="900" letter-spacing="8" fill="#e3b94f">SCORE</text><path d="M185 454h142" stroke="#d8a83d" stroke-width="4"/><circle cx="256" cy="470" r="9" fill="#d8a83d"/></svg>